<svg version="1.1" xmlns="http://www.w3.org/2000/svg" xmlns:xlink="http://www.w3.org/1999/xlink" width="707.98402" height="497.86094" viewBox="0,0,707.98402,497.86094"><g transform="translate(116.42349,86.74721)"><g data-paper-data="{&quot;isPaintingLayer&quot;:true}" fill-rule="nonzero" stroke-linejoin="miter" stroke-miterlimit="10" stroke-dasharray="" stroke-dashoffset="0" style="mix-blend-mode: normal"><g fill="#ff0000" stroke="none" stroke-width="1" stroke-linecap="butt"><path d="M-16.26628,110.72527v-117.14435h532.42323v117.14435z"/><path d="M591.56053,-8.69543l-5.97756,122.0547l-182.08011,-27.8953l76.08479,-94.15939z"/><path d="M15.18263,-9.9216l72.02595,95.17553l-180.00811,28.10533l-6.03433,-123.28086z"/><g opacity="0.4"><path d="M35.03404,45.53974c0.37738,-0.71141 0.94803,-1.30174 1.64624,-1.70301c1.18076,-0.6812 2.35583,-1.36241 3.76933,-1.45891c2.36487,-0.24782 4.72949,0.47078 6.55658,1.99252c1.21948,0.99617 1.93126,2.48423 1.94143,4.05884c0.12492,2.03104 -0.41946,4.04704 -1.54974,5.73915c-0.322,0.51905 -0.76392,0.95319 -1.28861,1.2659c-0.2441,0.13624 -0.48252,0.29519 -0.71526,0.44846c-1.36483,0.9433 -2.99671,1.42292 -4.65489,1.36809h-0.56767c-2.53181,0.07948 -4.23482,-1.16372 -5.37016,-3.37196c-1.47594,-2.84403 -1.23752,-5.60858 0.23275,-8.33907z"/><path d="M65.25111,87.30321c0.97071,-4.46756 -0.03406,-9.48576 6.34087,-10.11588c6.37493,-0.63012 7.06749,5.22824 7.14696,10.14426c0.06812,4.26887 -0.28952,11.76212 -5.9946,12.48873c-6.73824,0.85718 -7.01072,-8.12903 -7.49324,-12.51712z"/><path d="M134.55225,57.67653c-0.28384,6.42034 -4.12129,8.80455 -7.66354,9.0373c-4.03046,0.23842 -8.20282,-4.0191 -7.86222,-9.46873c0.29519,-4.76275 3.81473,-8.20283 7.31726,-8.55479c4.13263,-0.43711 8.45829,2.57155 8.20851,8.98622z"/><path d="M107.97394,80.90558c-0.19301,4.73436 -3.02567,6.49415 -5.64263,6.65309c-2.97459,0.17598 -6.05704,-2.96891 -5.80727,-6.98802c0.22139,-3.51955 2.83834,-6.05704 5.40421,-6.31817c3.05406,-0.32357 6.24437,1.89602 6.04569,6.65309z"/><path d="M142.15334,48.92306c0.19869,-4.73436 3.03136,-6.49415 5.6767,-6.64742c2.97459,-0.18165 6.05704,2.96323 5.80727,6.98801c-0.22139,3.51387 -2.83836,6.05136 -5.40422,6.31249c-3.08245,0.30654 -6.27275,-1.91873 -6.07975,-6.65309z"/><path d="M101.54792,53.71987c-0.35763,8.61723 -5.5064,11.81888 -10.26347,12.10272c-5.41557,0.31789 -11.01847,-5.39286 -10.56433,-12.71013c0.39737,-6.40331 5.10903,-11.01279 9.83204,-11.48963c5.54613,-0.562 11.3534,3.4855 10.99577,12.09705z"/><path d="M29.99881,63.81304c-0.26681,6.4317 -4.1156,8.82158 -7.66922,9.03162c-4.04181,0.2441 -8.22554,-4.02478 -7.88493,-9.49144c0.29519,-4.77978 3.8261,-8.21986 7.33998,-8.56046c4.14399,-0.43711 8.48099,2.5829 8.21418,9.02028z"/><path d="M174.28914,5.40549c1.32835,-6.09109 -0.04541,-12.9372 8.65129,-13.79438c8.6967,-0.85718 9.65039,7.12994 9.74122,13.83412c0.09082,5.80159 -0.39737,16.02532 -8.17444,16.99036c-9.19057,1.19211 -9.56524,-11.09794 -10.21806,-17.03009z"/><path d="M209.865,10.90053c0.98207,-0.53928 15.45765,-1.35105 17.5637,-0.74932c0.52398,0.40033 0.79625,1.04859 0.71526,1.70301c0,1.85628 0,12.23328 0,14.34502c0.04676,0.87769 -0.1988,1.74611 -0.69823,2.46936c-0.79474,0.10786 -15.97423,0.40872 -16.6384,0.30654c-0.53881,-0.12401 -0.94925,-0.56136 -1.03884,-1.10695c-0.28384,-1.10695 -0.13624,-16.37728 0.0965,-16.96765z"/><path d="M366.76327,77.68121c0.98207,-0.53929 15.45198,-1.35106 17.56371,-0.74932c0.5313,0.40081 0.81006,1.05339 0.7323,1.71436c0,1.82789 0,12.23329 0,14.34502c0.04638,0.88025 -0.20125,1.75094 -0.70391,2.47504c-0.78906,0.10786 -15.96855,0.40305 -16.63272,0.30087c-0.53956,-0.11895 -0.95155,-0.5557 -1.03884,-1.10128c-0.3179,-1.11263 -0.13625,-16.38295 0.07947,-16.98468z"/><path d="M254.92096,96.73789c0,-14.25987 0,-45.24329 0,-47.30393c-0.02332,-1.03176 0.07576,-2.06265 0.29519,-3.07109c2.28493,-0.24979 4.58162,-0.37676 6.88016,-0.38034c0.22707,0.10218 0.36331,0.6812 0.43143,1.37376c0.0738,1.06155 0.05676,33.73094 0,49.38728z"/><path d="M26.2749,33.70949c-0.45977,-1.66909 -0.48322,-3.42827 -0.06812,-5.10903c0.39737,-2.16282 2.22527,-3.89421 4.31997,-3.89421c1.67462,0 2.83834,0.91962 3.76933,2.1174c1.34636,1.8142 1.46735,4.26078 0.30654,6.19896c-0.18165,0.27248 -0.32357,0.56768 -0.4882,0.85719c-0.82262,1.45435 -2.30907,2.40992 -3.97368,2.55451c-1.19611,0.12414 -2.36142,-0.43004 -3.02001,-1.4362c-0.31222,-0.40304 -0.56199,-0.85151 -0.84583,-1.28861z"/><path d="M207.68515,88.34205c-0.45977,-1.66909 -0.48322,-3.42827 -0.06812,-5.10903c0.39737,-2.1685 2.22527,-3.8999 4.31996,-3.90557c1.67462,0 2.83835,0.91963 3.76933,2.11741c1.34735,1.81597 1.46834,4.26469 0.30654,6.20463c-0.18166,0.26681 -0.32357,0.56767 -0.4882,0.85151c-0.8204,1.45645 -2.30809,2.41282 -3.97369,2.55451c-1.19473,0.12401 -2.35912,-0.42754 -3.02,-1.43053c-0.31222,-0.39737 -0.56199,-0.84583 -0.84583,-1.28293z"/><path d="M204.30184,28.97514c-0.26681,6.42035 -4.10425,8.78753 -7.64651,9.0146c-4.03045,0.23842 -8.20283,-4.01911 -7.86223,-9.46873c0.29519,-4.76275 3.81474,-8.20283 7.31726,-8.55478c4.13263,-0.4144 8.45828,2.59425 8.19148,9.00892z"/><path d="M174.6638,44.30222l20.35664,0.88556l-19.99333,14.96945z"/><path d="M68.47548,42.51406c-0.15327,3.70689 -2.37287,5.10903 -4.41648,5.20554c-2.32744,0.13624 -4.74004,-2.31609 -4.54135,-5.46666c0.1703,-2.7532 2.20255,-4.73437 4.22346,-4.93873c2.38989,-0.2441 4.88764,1.49865 4.73437,5.19985z"/><path d="M196.99593,78.50432c-0.15327,3.70689 -2.36719,5.10903 -4.4108,5.20553c-2.33312,0.13624 -4.74004,-2.31609 -4.54135,-5.46666c0.17598,-2.7532 2.20824,-4.73437 4.22914,-4.93873c2.38989,-0.2441 4.88763,1.49865 4.72301,5.19986z"/><path d="M278.41114,40.85079c-0.15895,3.70689 -2.37286,5.10903 -4.41647,5.20553c-2.33312,0.13624 -4.74005,-2.31609 -4.54136,-5.46666c0.17598,-2.7532 2.20823,-4.73436 4.22914,-4.93872c2.38421,-0.2441 4.88196,1.49865 4.72869,5.19985z"/><path d="M296.14514,84.45919c-0.15327,3.70689 -2.37286,5.10903 -4.41647,5.20553c-2.32745,0.13624 -4.74005,-2.31609 -4.54136,-5.46666c0.1703,-2.7532 2.20256,-4.73437 4.22914,-4.93873c2.38421,-0.2441 4.88196,1.49864 4.72869,5.19985z"/><path d="M299.97692,36.52515c-0.15327,3.70689 -2.36719,5.10903 -4.4108,5.20553c-2.33312,0.13624 -4.74005,-2.31609 -4.54136,-5.46666c0.17598,-2.7532 2.20823,-4.73436 4.22914,-4.93872c2.38421,-0.2441 4.88196,1.49865 4.72302,5.19985z"/><path d="M315.2813,21.22644c-0.15327,3.70689 -2.37286,5.10903 -4.41647,5.20554c-2.32745,0.13624 -4.74004,-2.32177 -4.54136,-5.46666c0.1703,-2.7532 2.20255,-4.74005 4.22346,-4.94441c2.38989,-0.23842 4.88764,1.49865 4.73437,5.20553z"/><path d="M337.36933,72.9582c-0.15327,3.70689 -2.37286,5.10903 -4.41647,5.20553c-2.32745,0.13624 -4.74005,-2.32177 -4.54136,-5.47234c0.1703,-2.74752 2.20256,-4.73436 4.22346,-4.93872c2.38989,-0.23842 4.88764,1.49864 4.73437,5.20553z"/><path d="M171.53026,30.72924c-0.15327,3.70689 -2.37286,5.10903 -4.41647,5.20553c-2.32745,0.14192 -4.74005,-2.31609 -4.54136,-5.46666c0.1703,-2.7532 2.20256,-4.73437 4.22347,-4.93873c2.38422,-0.25545 4.88763,1.49865 4.73436,5.19985z"/><path d="M242.46061,50.9099c-0.15327,3.70121 -2.37286,5.10903 -4.41647,5.19985c-2.32745,0.14192 -4.74005,-2.31609 -4.54136,-5.46666c0.1703,-2.7532 2.20256,-4.73437 4.22346,-4.93873c2.4126,-0.2441 4.88763,1.49865 4.73436,5.20553z"/><path d="M256.83968,28.85593c-0.15327,3.70688 -2.37286,5.10902 -4.41647,5.20553c-2.32745,0.13624 -4.74005,-2.31609 -4.54136,-5.46666c0.1703,-2.7532 2.20256,-4.73437 4.22914,-4.93873c2.38422,-0.2441 4.88196,1.49865 4.72869,5.19985z"/><path d="M20.2803,17.98505c-0.2668,6.41467 -4.10425,8.79888 -7.64651,8.99189c-4.03045,0.23842 -8.20851,-4.01343 -7.86791,-9.46306c0.30086,-4.76843 3.82041,-8.20283 7.32294,-8.55479c4.13264,-0.40305 8.45829,2.61128 8.19148,9.02595z"/><path d="M461.26895,61.75239c0.26113,-6.39196 4.10425,-8.80455 7.64083,-9.01459c4.03046,-0.23842 8.20851,4.0191 7.86791,9.46873c-0.29519,4.76275 -3.81475,8.20283 -7.32295,8.55478c-4.12696,0.4144 -8.44692,-2.59425 -8.18579,-9.00892z"/><path d="M407.83986,32.82394c-1.29996,5.96621 0.04541,12.6704 -8.46963,13.51055c-8.51504,0.84015 -9.44035,-6.98234 -9.54253,-13.55028c-0.0965,-5.6767 0.38601,-15.7131 8.00414,-16.68381c9.00324,-1.14669 9.36656,10.87655 10.00802,16.72355z"/><path d="M359.49142,27.6922c0.2668,-6.41467 4.10426,-8.79888 7.64652,-9.00892c4.03046,-0.23842 8.20282,4.01343 7.86222,9.46306c-0.29519,4.76842 -3.81474,8.20283 -7.31727,8.55478c-4.13263,0.42007 -8.45828,-2.58857 -8.19147,-9.00892z"/><path d="M425.71579,33.5392c0.2668,-6.41467 4.10426,-8.79888 7.64652,-9.00892c4.03046,-0.2441 8.2085,4.01342 7.8679,9.46305c-0.30086,4.76843 -3.81474,8.20283 -7.32294,8.55479c-4.13263,0.42007 -8.45828,-2.59425 -8.19148,-9.00892z"/><path d="M454.61018,33.78896c0.27248,-8.6967 4.16102,-11.92107 7.75437,-12.2049c4.08722,-0.32357 8.31637,5.42692 7.94738,12.79528c-0.2668,6.43738 -3.84313,11.08092 -7.39674,11.55776c-4.18941,0.56767 -8.57749,-3.50252 -8.30501,-12.14813z"/><path d="M321.01476,38.69364c0.2668,-6.41467 4.10425,-8.79888 7.64651,-9.00892c4.03046,-0.23842 8.20283,4.01343 7.86223,9.46306c-0.29519,4.76843 -3.81474,8.20283 -7.31727,8.55478c-4.13263,0.42007 -8.45828,-2.59425 -8.19147,-9.00892z"/><path d="M278.64956,71.1303c-0.14191,4.6776 -2.2423,6.41467 -4.17805,6.56794c-2.20824,0.1703 -4.49026,-2.92918 -4.30293,-6.89719c0.16463,-3.47414 2.08902,-5.97756 4.00207,-6.24437c2.25932,-0.29519 4.62651,1.89602 4.47892,6.57362z"/><path d="M394.63019,58.76645c-0.2668,6.41467 -4.10425,8.79888 -7.64651,9.00892c-4.03046,0.23842 -8.20283,-4.01343 -7.86223,-9.46874c0.29519,-4.76275 3.81474,-8.19715 7.31727,-8.55478c4.13263,-0.40872 8.45828,2.59993 8.19147,9.0146z"/><path d="M312.51674,61.23582c-0.2668,6.41467 -4.10425,8.79888 -7.64651,9.00892c-4.03046,0.23842 -8.20283,-4.01343 -7.86791,-9.46874c0.30086,-4.76275 3.82042,-8.19716 7.32294,-8.55479c4.13263,-0.4144 8.47531,2.57155 8.19148,9.0146z"/><path d="M437.35302,75.28564c-0.2668,6.42034 -4.10425,8.80456 -7.64651,9.0146c-4.03046,0.23842 -8.20283,-4.0191 -7.86223,-9.46873c0.29519,-4.76275 3.81474,-8.19715 7.31727,-8.55478c4.13263,-0.4144 8.45828,2.59425 8.19148,9.00892z"/><path d="M112.01575,27.62976c-0.26681,6.41467 -4.10425,8.79888 -7.64651,9.00892c-4.03614,0.23842 -8.2085,-4.01343 -7.8679,-9.46306c0.29519,-4.76843 3.81474,-8.20283 7.32294,-8.55478c4.13263,-0.42008 8.4526,2.59426 8.19147,9.00893z"/><path d="M322.62127,87.25212c-0.2668,6.41467 -4.10426,8.79888 -7.64652,9.00892c-4.03046,0.23842 -8.20283,-4.01342 -7.8679,-9.46873c0.30086,-4.76275 3.82042,-8.19715 7.32295,-8.55478c4.13263,-0.4144 8.45828,2.59425 8.19147,9.0146z"/><path d="M173.31842,77.31789c-0.26113,5.17715 -4.09857,7.10155 -7.64083,7.27185c-4.03614,0.19301 -8.20851,-3.2414 -7.86791,-7.64084c0.29519,-3.84313 3.81475,-6.61335 7.32295,-6.90286c4.13263,-0.33492 8.4526,2.0947 8.18579,7.27185z"/><path d="M79.26688,20.05704c-0.26681,5.17715 -4.09857,7.10156 -7.64083,7.27186c-4.05884,0.21571 -8.20851,-3.2414 -7.8679,-7.64084c0.29519,-3.84313 3.80906,-6.61336 7.31726,-6.90287c4.13832,-0.33493 8.45828,2.0947 8.19147,7.27185z"/><path d="M60.36347,72.66867c-0.38034,6.41467 -5.82429,8.79888 -10.84817,9.00892c-5.72211,0.23842 -11.64859,-4.01343 -11.16607,-9.46873c0.42575,-4.76275 5.41556,-8.19715 10.38835,-8.55479c5.86403,-0.4144 12.01757,2.59425 11.62588,9.0146z"/><path d="M247.46178,74.89395c-0.37466,6.41467 -5.82429,8.79888 -10.84817,9.00892c-5.72211,0.23842 -11.64291,-4.01342 -11.16039,-9.46305c0.42007,-4.76842 5.41557,-8.20283 10.38836,-8.55479c5.86403,-0.42007 12.00054,2.59425 11.6202,9.00892z"/><path d="M141.36428,19.31905c0.97639,-4.46756 -0.03406,-9.48577 6.34087,-10.1102c6.37493,-0.62444 7.06749,5.22824 7.14696,10.13859c0.06812,4.26888 -0.28951,11.76212 -5.99459,12.48873c-6.76663,0.85718 -7.03911,-8.15174 -7.49325,-12.51712z"/><path d="M204.33022,58.68698c0.97639,-4.46189 -0.03406,-9.48577 6.34655,-10.13858c6.38061,-0.65282 7.06181,5.22824 7.14128,10.14426c0.06812,4.26888 -0.28951,11.76213 -5.99459,12.48874c-6.73824,0.87989 -7.01073,-8.12904 -7.49325,-12.49442z"/><path d="M133.48503,82.92646c0.97072,-4.46756 -0.03406,-9.48576 6.34087,-10.11588c6.37493,-0.63012 7.06181,5.22824 7.14129,10.14426c0.06812,4.26887 -0.28951,11.76212 -5.98892,12.48874c-6.74392,0.85718 -6.99369,-8.15741 -7.49324,-12.51712z"/><path d="M449.20029,88.98919c0.97639,-4.46188 -0.03406,-9.48009 6.34655,-10.1102c6.38061,-0.63012 7.06182,5.22824 7.11858,10.14426c0.06812,4.26887 -0.28951,11.76212 -5.9946,12.48874c-6.71553,0.85718 -6.98801,-8.15742 -7.47053,-12.5228z"/><path d="M346.32716,54.22509c0.97639,-4.46756 -0.03406,-9.48577 6.34087,-10.1102c6.37493,-0.62443 7.06749,5.22824 7.14696,10.13858c0.06812,4.26888 -0.28951,11.76212 -5.99459,12.48873c-6.73824,0.86286 -7.01072,-8.14606 -7.49325,-12.51712z"/></g></g><g stroke="none" stroke-linecap="butt"><path d="M488.2261,140.1479h-90.15733l5.44963,-54.49631c32.13579,1.93008 61.50703,4.25185 84.7077,6.28979z" fill="#ff0000" stroke-width="1"/><path d="M83.67618,129.91279l3.54793,-44.49964c21.44089,-0.81177 45.24329,-1.62354 68.82429,-2.27068c25.70409,-0.70391 53.53127,0.65282 78.03758,0c51.47062,-1.36241 119.68751,-0.48252 169.43242,2.49207v44.27825z" fill="#ff0000" stroke-width="1"/><path d="M-3.37599,133.31883v-43.79573c12.57389,-0.64714 27.04379,-1.3624 42.71148,-2.07767c14.78213,-0.66985 30.85853,-1.35105 47.88863,-2.00387v47.87727z" fill="#ff0000" stroke-width="1"/><path d="M500.71483,127.94868v154.17345h-516.57956v-153.29924l263.13768,-8.9181z" fill="#ff0000" stroke-width="1"/><path d="M449.90271,160.73161c-0.0965,-1.55542 -0.2441,-2.78726 0.17597,-4.1156l0.89124,0.09082v3.62741z" fill="#ff0000" stroke-width="1"/><path d="M447.67744,159.77792h-0.83447c-0.34628,-1.00477 0.1703,-1.97549 -0.07948,-3.01432l0.95936,-0.33492c0.30086,1.21481 -0.13056,2.24229 -0.04541,3.34925z" fill="#ff0000" stroke-width="1"/><path d="M488.2261,368.33415h-490.46675v-143.45585l242.41774,-32.22094l248.04902,28.13371z" fill="#ff0000" stroke-width="1"/><path d="M157.1724,282.57624l0.90827,0.30654c0.07948,1.61786 0.14759,3.12786 0.21571,4.6038c-0.11921,0.10218 -0.19301,0.21571 -0.28384,0.22707c-0.22861,0.01774 -0.45827,0.01774 -0.68688,0c-0.11909,-0.36934 -0.20087,-0.74969 -0.2441,-1.13534c0,-1.24887 0.05109,-2.4864 0.09083,-4.00207z" fill="#ff0000" stroke-width="1"/><path d="M154.73709,287.55473c-0.23842,-0.27816 -0.47116,-0.42575 -0.48819,-0.56767c-0.08044,-0.81302 -0.11834,-1.62968 -0.11354,-2.44666c0.05719,-0.46073 0.15793,-0.91501 0.30087,-1.35673l0.77203,0.40305c0.18733,3.05406 0.18733,3.05406 -0.47117,3.96801z" fill="#ff0000" stroke-width="1"/><path d="M161.288,287.6058l-0.9991,0.21004c-0.65282,-1.29996 -0.09083,-2.53749 -0.19869,-3.80907l0.70391,-0.20436c0.53361,1.25455 0.34061,2.50342 0.49388,3.80338z" fill="#ff0000" stroke-width="1"/><path d="M64.55138,197.69827c0,-20.15904 80.87957,-36.50117 180.64958,-36.50117c99.77001,0 180.64958,16.34213 180.64958,36.50117c0,20.15904 -80.87957,36.50118 -180.64958,36.50118c-99.77,0 -180.64957,-16.34214 -180.64957,-36.50118z" fill="#ff0000" stroke-width="1"/><path d="M124.88333,370.06554c0,-22.6703 51.95171,-41.04821 116.0374,-41.04821c64.08569,0 116.0374,18.37791 116.0374,41.04821c0,22.6703 -51.95171,41.0482 -116.03739,41.0482c-64.08569,0 -116.03739,-18.3779 -116.03739,-41.0482z" fill="#ff0000" stroke-width="1"/><path d="M560.09878,215.82964l-4.14399,23.81943l-316.96982,-42.46738l-306.68931,47.58209l-4.06451,-25.82898l313.45026,-46.68517z" fill="#ff0000" stroke-width="1"/><path d="M254.2042,194.84289l0.33493,6.39196l-23.94432,-0.21571l0.18734,-5.77888l10.6211,-2.58289z" fill="#ff0000" stroke-width="1"/><path d="M531.12491,148.2372c-29.69481,-4.4335 -52.72518,-9.03163 -95.36853,-13.13588c-57.70364,-5.54613 -151.23293,-8.4072 -194.1885,-8.74779c-61.93278,-0.50522 -172.54892,5.67102 -246.27221,13.11885c-12.8634,1.28294 -24.44386,2.63967 -34.75842,3.97369l-4.14967,-15.17382c127.32835,-6.37493 177.85096,-14.07254 294.22328,-13.34592c135.03163,0.85718 230.27527,9.0884 277.10803,15.04893z" fill="#ff0000" stroke-width="1"/><path d="M556.59625,230.25981l-209.24878,-30.26248v-3.76365l209.20337,30.6712z" fill="#ff0000" stroke-width="1"/><path d="M-74.56179,228.97688l209.20337,-30.6712v3.76365l-209.24878,30.26248z" fill="#ff0000" stroke-width="1"/><path d="M406.13536,333.3146l0.91395,0.30654c0.0738,1.61786 0.14759,3.12786 0.21571,4.6038c-0.12489,0.0965 -0.19869,0.21571 -0.28951,0.22707c-0.22683,0.01489 -0.45438,0.01489 -0.6812,0c-0.11991,-0.36944 -0.20357,-0.74968 -0.24977,-1.13534c0,-1.24887 0.05109,-2.47504 0.09083,-4.00207z" fill="#ff0000" stroke-width="1"/><path d="M403.70573,338.28738c-0.23842,-0.27248 -0.47117,-0.42007 -0.4882,-0.56767c-0.08297,-0.81284 -0.12087,-1.62963 -0.11354,-2.44665c0.05577,-0.45541 0.15655,-0.90417 0.30086,-1.3397l0.76636,0.40305c0.18733,3.04271 0.18733,3.04271 -0.46549,3.95098z" fill="#ff0000" stroke-width="1"/><path d="M410.25664,338.33847l-1.00477,0.21571c-0.65282,-1.30564 -0.09083,-2.53749 -0.19301,-3.80906l0.70391,-0.21004c0.53361,1.25455 0.3406,2.5091 0.49387,3.80338z" fill="#ff0000" stroke-width="1"/><path d="M96.63041,157.16097l0.90827,0.30654c0.07948,1.61786 0.1476,3.12786 0.21572,4.6038c-0.11921,0.10218 -0.193,0.21571 -0.28383,0.23274c-0.22872,0.0146 -0.45816,0.0146 -0.68688,0c-0.1191,-0.36934 -0.20087,-0.74969 -0.2441,-1.13534c-0.00567,-1.27725 0.0511,-2.51477 0.09083,-4.00774z" fill="#ff0000" stroke-width="1"/><path d="M94.1951,162.11672c-0.23842,-0.27816 -0.47116,-0.42008 -0.48819,-0.56767c-0.0803,-0.81113 -0.1182,-1.6259 -0.11354,-2.44098c0.05795,-0.45504 0.15868,-0.90358 0.30087,-1.3397l0.77203,0.40304c0.16463,3.03135 0.16463,3.03136 -0.47116,3.94531z" fill="#ff0000" stroke-width="1"/><path d="M100.74601,162.1678l-0.9991,0.21004c-0.65282,-1.29996 -0.09083,-2.53748 -0.19868,-3.80339l0.70391,-0.21004c0.53361,1.25455 0.3406,2.50342 0.49387,3.80338z" fill="#ff0000" stroke-width="1"/><path d="M74.9,247.09122l-0.78338,-0.31789c0.13057,-2.04361 0.48252,-4.0929 0.193,-6.24437l0.97639,-0.22139c0.03424,2.26755 -0.09477,4.53462 -0.38602,6.78365z" fill="#ff0000" stroke-width="1"/><path d="M72.27169,243.23107c0.14191,1.21481 0.27248,2.34448 0.42007,3.62174h-1.05019c-0.07948,-1.29429 -0.14759,-2.47504 -0.22139,-3.79771z" fill="#ff0000" stroke-width="1"/><path d="M455.54534,278.50606l-0.78338,-0.31789c0.13056,-2.04361 0.48252,-4.0929 0.19301,-6.24437l0.97639,-0.22139c0.03424,2.26755 -0.09477,4.53463 -0.38602,6.78366z" fill="#82783c" stroke-width="1"/><path d="M452.91703,274.66862c0.14191,1.21481 0.27248,2.34448 0.42007,3.62174h-1.05019c-0.07948,-1.29429 -0.1476,-2.47504 -0.22139,-3.79771z" fill="#82783c" stroke-width="1"/><path d="M349.60112,208.57482l-84.40683,0.08515l-0.56767,-22.34349l83.74266,0.06244z" fill="#ff0000" stroke-width="0.5"/><path d="M133.92631,186.37893l83.74266,-0.06244l-0.56767,22.34349l-84.40683,-0.08515zM211.82765,205.63429l0.64715,-16.33754l-74.26825,-0.12489l-0.53929,16.59867z" fill="#ff0000" stroke-width="1"/><path d="M137.61845,205.78136l0.53932,-16.62048l74.36587,0.12519l-0.64718,16.35906z" data-paper-data="{&quot;noHover&quot;:false,&quot;origItem&quot;:[&quot;Path&quot;,{&quot;applyMatrix&quot;:true,&quot;segments&quot;:[[423.6553,411.26857],[424.9496,378.59349],[276.4131,378.34371],[275.33452,411.54105]],&quot;closed&quot;:true,&quot;fillColor&quot;:[0,0,0,1]}]}" fill="#ff0000" stroke-width="0.5"/><path d="M281.66239,175.24125l-88.67003,0.10218l-0.59605,12.14813l-6.46008,-0.05677l2.06632,-16.18427l97.37241,0.5109l3.12219,15.67337l-4.97278,-0.193z" fill="#ff0000" stroke-width="1"/><path d="M420.63933,217.98111l0.91395,0.30654c0.0738,1.61786 0.14192,3.12786 0.21571,4.6038c-0.12489,0.10218 -0.19869,0.21571 -0.28951,0.22707c-0.22672,0.01774 -0.45448,0.01774 -0.6812,0c-0.12077,-0.36921 -0.20444,-0.74954 -0.24977,-1.13534c0,-1.24319 0.05109,-2.48639 0.09083,-4.00207z" fill="#ff0000" stroke-width="1"/><path d="M418.2097,222.95958c-0.23842,-0.27816 -0.47684,-0.42575 -0.4882,-0.56767c-0.0861,-0.81259 -0.12401,-1.62957 -0.11354,-2.44665c0.05638,-0.45294 0.15521,-0.89958 0.29519,-1.33403l0.77203,0.40305c0.18733,3.03135 0.18733,3.03135 -0.46549,3.9453z" fill="#ff0000" stroke-width="1"/><path d="M424.75493,223.01067l-0.9991,0.21004c-0.65282,-1.29996 -0.09082,-2.53749 -0.19869,-3.80339l0.70391,-0.21004c0.53929,1.25455 0.3406,2.50343 0.49388,3.80339z" fill="#ff0000" stroke-width="1"/><path d="M264.53012,339.86551v4.70031l-49.2113,0.07379v-5.1147z" fill="#ff0000" stroke-width="1"/></g><path d="M83.44733,109.06331c-2.5,0 -2.5,-2.5 -2.5,-2.5v-0.93719c0,-3.67776 -1.08478,-9.65542 0.1903,-13.14014c0.30362,-0.82978 1.53081,-1.06032 1.87437,-1.87437c0.28088,-0.66553 -0.26439,-1.44393 -0.17157,-2.16031c0.53419,-4.12291 0.91846,-7.66129 0.91846,-11.87797c0,0 0,-2.5 2.5,-2.5c2.5,0 2.5,2.5 2.5,2.5c0,4.39828 -0.29309,8.17773 -0.95592,12.48889c-0.17562,1.14226 0.2421,2.3837 -0.17157,3.46281c-0.31627,0.82505 -1.51072,1.06909 -1.87437,1.87437c-0.2558,0.56645 0.16498,1.23384 0.1903,1.85485c0.12695,3.11307 0,6.2558 0,9.37187v0.93719c0,0 0,2.5 -2.5,2.5z" fill="#ff0000" stroke="none" stroke-width="0.5" stroke-linecap="butt"/><path d="M148.11323,181.53826v-112.46243" fill="none" stroke="#ff0000" stroke-width="0.5" stroke-linecap="round"/><path d="M271.82191,58.76678l-2.81156,164.00772" fill="none" stroke="#ff0000" stroke-width="0.5" stroke-linecap="round"/><path d="M31.90205,110.31205l-2.81156,-33.73873l0.93718,170.56803" fill="none" stroke="#ff0000" stroke-width="0.5" stroke-linecap="round"/><path d="M107.81419,59.70396l-0.93719,268.03547" fill="none" stroke="#ff0000" stroke-width="0.5" stroke-linecap="round"/><path d="M197.78414,99.06581l2.81156,-36.55029" fill="none" stroke="#ff0000" stroke-width="0.5" stroke-linecap="round"/><path d="M340.23656,68.13863l8.43468,206.18113" fill="none" stroke="#ff0000" stroke-width="0.5" stroke-linecap="round"/><path d="M394.5934,379.28472l-510.76689,-465.78192" fill="none" stroke="#ff0000" stroke-width="0.5" stroke-linecap="round"/><path d="M224.02538,69.07582l3.74875,180.87709" fill="none" stroke="#ff0000" stroke-width="0.5" stroke-linecap="round"/><path d="M70.32671,73.76175l-1.87437,197.74645" fill="none" stroke="#ff0000" stroke-width="0.5" stroke-linecap="round"/><path d="M37.52517,275.56852c2.5,0 2.5,2.5 2.5,2.5v1.87437c-0.01167,1.56204 -0.21757,3.8929 0.61269,5.32856c0.97374,1.68378 3.64791,2.86928 5.03259,3.98433c0.60319,0.48573 0.94155,1.27947 1.60373,1.6811c1.7811,1.08029 4.18409,0.90633 5.88037,2.11544c2.40433,1.71381 3.7315,4.59029 5.81932,6.6781c1.41443,1.41443 3.26557,2.34027 4.68593,3.74875c0,0 1.76777,1.76776 0,3.53553c-1.76776,1.76776 -3.53553,0 -3.53553,0c-1.40725,-1.42157 -3.2715,-2.33432 -4.68594,-3.74874c-1.84389,-1.84389 -2.88066,-4.49751 -5.0005,-6.01609c-1.66587,-1.19336 -4.03146,-1.01157 -5.7923,-2.05974c-0.85336,-0.50797 -1.36776,-1.44949 -2.14502,-2.06765c-2.53954,-2.01972 -4.38474,-2.16357 -6.21365,-5.38754c-1.4916,-2.62937 -1.24508,-5.02777 -1.26169,-7.79206v-1.87437c0,0 0,-2.5 2.5,-2.5z" fill="#ff0000" stroke="none" stroke-width="0.5" stroke-linecap="butt"/><path d="M115.00013,326.80224c0,2.5 -2.5,2.5 -2.5,2.5l-2.63487,-0.13306c-0.45185,0.64701 -1.20203,1.07025 -2.05107,1.07025h-2.81156v-0.11145c-0.31862,0.00989 -0.6375,-0.01302 -0.95671,-0.07885c-1.43617,-0.29618 -2.96285,-2.70634 -4.36921,-4.20646c-0.06392,-0.02659 -0.12745,-0.05464 -0.1906,-0.08423c-0.29143,-0.13653 -0.47505,-0.36879 -0.60063,-0.65469c-0.03589,-0.02765 -0.07167,-0.05425 -0.10733,-0.07975c-2.322,-1.66041 -5.06985,-2.86793 -6.92603,-5.03663c-0.68936,-0.80541 -0.98981,-1.91243 -1.73789,-2.66361c-1.53889,-1.54529 -4.57128,-2.29277 -4.8608,-4.7398c-1.96116,-1.25821 -4.06539,-2.35767 -5.7086,-4.00088l-0.0742,-0.41062l-0.13376,0.06689l-1.85188,-3.70377c-0.18291,-0.34741 -0.28643,-0.74312 -0.28643,-1.16302c0,-0.03598 0.00076,-0.07179 0.00227,-0.1074c-0.98831,0.04446 -2.19262,-0.03601 -3.88578,-0.24433c-0.88253,-0.10858 -1.62185,-0.78258 -2.4975,-0.93718c-2.2237,-0.39263 -4.86986,-0.10069 -6.66641,-1.40775l-2.57359,-1.44182c-0.17307,0.04437 -0.35339,0.07068 -0.53881,0.0768c-0.05224,0.03365 -0.10555,0.06612 -0.15987,0.09746c0.98383,0.62367 1.9078,1.35884 2.7809,2.19647c0,0 1.76777,1.76777 0,3.53553c-0.93547,0.93547 -1.87094,0.88087 -2.54445,0.62209c-0.45346,0.63407 -1.1959,1.04733 -2.03487,1.04733c-0.69035,0 -1.31535,-0.27983 -1.76776,-0.73224v0l-1.74526,-1.74526c-1.09656,-0.61031 -2.17077,-1.27893 -3.1461,-2.04082c-1.99111,-0.19357 -4.01252,-0.41473 -5.90145,-1.47818c-0.76995,-0.43347 -1.12237,-1.41047 -1.87438,-1.87438c-0.99657,-0.61478 -2.44553,-0.45963 -3.265,-1.29604c-1.37543,-1.40388 -0.83035,-4.28509 -2.48391,-5.34735c-1.03081,-0.6622 -6.07071,-0.52948 -6.58196,-0.95262c-2.37802,-1.96822 -2.91503,-5.0061 -2.17618,-7.74025c-0.93516,-0.663 -2.46623,-0.02442 -3.42529,-0.679c-1.61273,-1.10071 -1.94323,-3.60737 -3.62296,-4.60285c-1.04785,-0.621 -2.24761,-0.93954 -3.37142,-1.40931l-0.0543,-1.26881l-0.52296,0.1046l-0.92706,-4.63532c-0.03842,-0.17418 -0.05867,-0.35518 -0.05867,-0.54091c0,-1.38071 1.11929,-2.5 2.5,-2.5c0.59804,0 1.14705,0.20999 1.57729,0.56027l3.8888,3.11104l-0.00924,0.01155c0.02884,0.01751 0.05763,0.03509 0.08638,0.05275c0.74986,0.46035 1.21121,1.289 1.8527,1.88954c0.03369,-0.00135 0.06755,-0.00203 0.10158,-0.00203c0.4199,0 0.81561,0.10352 1.16302,0.28643l2.31362,1.15681c0.7193,0.16321 1.43888,0.3294 2.1133,0.60031c1.24722,0.50101 2.45252,1.10782 3.66009,1.70697c0.00863,0.00001 0.01725,0.00003 0.02589,0.00007c2.1065,0.01 3.66686,0.61007 4.98933,1.52113c0.3471,-0.10376 0.70682,-0.17903 1.07352,-0.23711c0.03453,-0.42953 0.16684,-0.83066 0.43968,-1.18483c2.99567,-3.88867 5.51906,-1.17953 7.42877,0.63193c1.77665,0.12529 3.45197,0.5239 5.02766,1.27827c0.25628,-0.08869 0.53148,-0.13687 0.81791,-0.13687c0.69035,0 1.31536,0.27983 1.76777,0.73224l1.87437,1.87438l-0.14173,0.14173l0.40207,0.16426c0.19152,0.37786 0.42306,0.82163 0.68053,1.31421l0.49264,0.61581c0.49345,0.32361 0.87315,0.76792 1.2137,1.25556c0.28307,0.25534 0.56997,0.50658 0.86351,0.75432c0.32988,-0.17866 0.74909,-0.29218 1.28182,-0.29218c2.5,0 2.5,2.5 2.5,2.5l-1.17113,1.19154c1.91464,1.88095 3.95811,4.14663 2.76107,5.54675c0.14419,0.13415 0.30515,0.23679 0.49907,0.27902c1.48855,0.32414 3.0942,-0.41557 4.57014,-0.03817c1.8943,0.48438 3.36679,2.04667 5.20634,2.70429h2.50387c1.38071,0 2.5,1.11929 2.5,2.5c0,1.2504 -0.91798,2.2864 -2.11677,2.47081l0.48495,0.48495c1.0289,0.42077 2.0496,0.85906 3.04176,1.35876c1.40215,0.70619 2.65962,1.64586 3.88957,2.62804c0.1835,-0.02594 0.36388,-0.04861 0.53923,-0.06885c0.10631,-0.01227 0.21207,-0.02231 0.31727,-0.03019c0.04914,-2.58312 0.84529,-5.86938 2.57071,-6.34166c5.19588,-1.42219 6.38283,2.77909 8.51319,5.41066c1.37929,1.7038 3.09424,3.2052 4.06118,5.17253c1.54391,3.14125 1.45395,6.91621 1.30376,10.52684c0.96479,0.81673 2.21956,1.34503 3.03028,2.31965l1.85486,-0.1903c0,0 2.5,0 2.5,2.5zM97.78521,308.78396c-0.66902,-1.0661 -1.20468,-2.21627 -2.13492,-3.1017c-0.25818,-0.24574 0.52253,0.54959 0.57382,0.90232c0.06041,0.41541 -0.53391,0.91034 -0.26353,1.23146c0.43853,0.52083 1.19356,0.67456 1.82463,0.96792zM99.32049,310.72652c0.08127,0.20514 0.15246,0.41366 0.21589,0.62475c0.8431,0.83738 1.62994,1.73025 2.36619,2.59686c-0.63742,-1.22116 -1.63158,-2.19081 -2.58208,-3.22161z" fill="#ff0000" stroke="none" stroke-width="0.5" stroke-linecap="butt"/><path d="M26.21243,221.75433c0.50463,-0.21867 1.00663,-0.44599 1.54609,-0.51129c4.79184,-0.58009 5.14945,0.18848 9.68936,1.99554c1.24403,0.49517 2.80214,0.5415 3.71943,1.51688c2.60798,2.77312 1.24312,4.1101 1.63714,6.99043c0.17586,1.28553 1.15041,2.51279 0.90259,3.7864c-0.21073,1.08297 -1.64388,1.5423 -2.13199,2.53174c-0.60449,1.22534 -0.31148,2.82011 -1.06915,3.95712c-0.64129,0.96237 -2.1444,1.04989 -2.86833,1.95174c-0.68292,0.85076 -0.37922,2.296 -1.15619,3.06184c-0.83393,0.82199 -2.26539,0.68622 -3.265,1.29605c-0.86381,0.52697 -1.28443,1.70248 -2.232,2.05745c-1.17777,0.4412 -2.51218,0.12687 -3.76827,0.1903c0,0 -2.5,0 -2.5,-2.5c0,-0.38672 0.05982,-0.71361 0.16095,-0.98994c-0.10402,-0.27496 -0.16095,-0.57305 -0.16095,-0.88444v-2.43474c-0.6622,-0.50371 -0.54293,-1.59992 -0.80889,-2.39781c-0.19335,-0.58004 -0.33465,-1.17331 -0.44649,-1.77399l-1.15707,-2.31415c-1.04695,-1.02194 -2.69514,-1.22938 -3.89936,-2.0733c-1.14203,-0.80034 -1.91316,-2.02952 -2.86974,-3.04429c-0.07394,-4.0009 -0.96403,-5.58086 2.66659,-8.5666c0.19087,-0.15697 0.3726,-0.29774 0.54633,-0.42386c-0.29228,-1.37467 -0.5776,-2.75128 -0.59166,-4.14969v-2.81156c0,-1.38071 1.11929,-2.5 2.5,-2.5c0.998,0 1.85943,0.58479 2.26029,1.43041l1.85016,3.7003l-0.03035,0.01517c0.03495,0.04848 0.06962,0.0972 0.10398,0.14615c0.5334,0.75993 0.98169,1.70572 1.37254,2.74812zM20.24054,229.55031c-0.03873,0.21298 -0.0678,0.44636 -0.08659,0.70215c0.40426,0.32398 0.87621,0.53379 1.3684,0.71084c-0.05823,-0.10603 -0.11872,-0.21079 -0.18161,-0.31417c-0.26597,-0.43721 -0.69395,-0.76243 -1.1002,-1.09881zM30.58772,244.07753c0.04341,-0.02543 0.08834,-0.04769 0.13458,-0.06723l-0.25477,-0.76432l0.16529,-0.0551l-0.2613,-0.33501c-0.00687,-0.68309 -0.01267,-1.36619 -0.01752,-2.04929c-0.10751,-0.39001 -0.18844,-0.80287 -0.24641,-1.23264c-0.11245,1.28548 -0.39147,2.65515 -0.39147,3.81866v1.75722c0.2613,-0.39123 0.47984,-0.84281 0.87161,-1.07228zM36.25954,228.0217l-0.05776,1.91943c-0.34731,1.3588 -0.67025,2.74453 -0.85641,4.1458c0.00178,1.4752 0.0007,2.95041 -0.0067,4.42557c0.07507,0.41887 0.22275,0.82972 0.37909,1.23831c0.27869,-0.15709 0.52548,-0.34665 0.70105,-0.60989c0.67157,-1.00684 0.25614,-2.46184 0.80523,-3.54038c0.30603,-0.60112 1.47736,-0.55703 1.61675,-1.21701c0.14314,-0.6777 -0.83004,-1.15873 -0.97178,-1.83672c-0.29075,-1.39074 0.84984,-3.34096 -0.23723,-4.25581c-0.35935,-0.30242 -0.87998,-0.24348 -1.37224,-0.2693zM30.28946,233.93681c0.01017,-0.0698 0.02052,-0.13943 0.03104,-0.2089l-0.13069,0.13069zM30.33924,231.20917c0.00007,-0.02373 -0.00195,-0.06555 -0.00522,-0.12275c-0.21676,0.30936 -0.44031,0.61408 -0.66268,0.9168l0.66435,0.66435c0.0009,-0.48613 0.0021,-0.97227 0.00355,-1.4584zM29.98494,237.22382c0.00289,0.01006 0.00574,0.02014 0.00854,0.03025c0.00031,-0.01452 0.00062,-0.02906 0.00096,-0.0436c-0.00317,0.00445 -0.00633,0.0089 -0.0095,0.01335z" fill="#ff0000" stroke="none" stroke-width="0.5" stroke-linecap="butt"/><path d="M156.56744,190.11852c-0.45202,-0.36912 -0.86639,-0.88218 -1.26276,-1.41287c-0.22053,-0.02692 -0.4322,-0.08255 -0.63114,-0.16305v0.18159h-2.31331c0.02688,0.28651 0.05863,0.56957 0.0951,0.8483c0.39538,3.02156 2.26216,3.36241 3.93886,0.81305c0.05831,-0.08866 0.11605,-0.17768 0.17326,-0.26702zM147.75778,181.0325c-0.68462,-2.28806 -0.05773,-4.46642 3.52982,-5.67611c1.46027,-0.49239 3.07196,0.50802 4.48432,1.12453c3.39452,1.48174 5.61917,4.7915 7.41817,8.16399l1.6859,1.6859c0.45241,0.45241 0.73224,1.07741 0.73224,1.76776c0,1.38071 -1.11929,2.5 -2.5,2.5h-1.64496c-2.13618,5.14792 -8.23399,9.93252 -12.6651,3.50026c-2.15729,-3.13155 -1.90792,-8.76353 -1.04039,-13.06633z" fill="#ff0000" stroke="none" stroke-width="0.5" stroke-linecap="butt"/><path d="M226.82559,262.58837c-0.06134,0.03303 -0.12294,0.06521 -0.18478,0.0965c0.45753,0.94229 0.91755,1.90515 1.69452,1.67384l-1.39179,-1.39179l0.14783,-0.14783c-0.09065,-0.07449 -0.17932,-0.1513 -0.26578,-0.23071zM223.58775,249.19659c0.0015,-0.0669 0.0023,-0.13371 0.0023,-0.20039c0.55612,-0.61805 2.55347,-2.97573 4.06857,-4.30566c0.31959,-0.4195 0.76881,-0.73492 1.28791,-0.88649c0.04154,-0.01408 0.08103,-0.02461 0.11834,-0.0314c0.17751,-0.04245 0.36238,-0.06597 0.55235,-0.0683c4.32338,-0.33965 7.55821,3.99174 8.12212,7.72248c0.37276,2.46616 -0.49259,4.98378 -1.11554,7.39891c-1.04753,4.06113 -1.82957,9.82151 -7.58065,10.47442c-4.52723,0.51397 -4.84395,-1.98921 -6.95113,-4.64165c-0.69789,-0.87847 -1.84373,-1.45711 -2.25071,-2.50264c-0.15983,-0.41059 -0.24823,-5.71007 -0.1903,-6.57983c0.09524,-1.42994 -0.33423,-3.08845 0.47189,-4.27333c0.76086,-1.11836 2.20608,-1.50121 3.46486,-2.1061z" fill="#ff0000" stroke="none" stroke-width="0.5" stroke-linecap="butt"/><path d="M174.04291,236.83229c0,2.5 -2.5,2.5 -2.5,2.5c-5.31072,0 -12.49582,0 -17.80655,0c0,0 -2.5,0 -2.5,-2.5c0,-2.5 2.5,-2.5 2.5,-2.5c5.31072,0 10.62145,0 15.93218,0h1.87437c0,0 2.5,0 2.5,2.5z" fill="#ff0000" stroke="none" stroke-width="0.5" stroke-linecap="butt"/><text transform="translate(145.30167,105.62611) scale(0.5,0.5)" font-size="40" xml:space="preserve" fill="#000000" fill-rule="nonzero" stroke="none" stroke-width="1" stroke-linecap="butt" stroke-linejoin="miter" stroke-miterlimit="10" stroke-dasharray="" stroke-dashoffset="0" font-family="&quot;Algerian&quot;, Sans Serif" font-weight="normal" text-anchor="start" style="mix-blend-mode: normal"><tspan x="0" dy="0">666</tspan></text><text transform="translate(212.77913,121.55829) scale(0.5,0.5)" font-size="40" xml:space="preserve" fill="#000000" fill-rule="nonzero" stroke="none" stroke-width="1" stroke-linecap="butt" stroke-linejoin="miter" stroke-miterlimit="10" stroke-dasharray="" stroke-dashoffset="0" font-family="&quot;Algerian&quot;, Sans Serif" font-weight="normal" text-anchor="start" style="mix-blend-mode: normal"><tspan x="0" dy="0">666</tspan></text><text transform="translate(158.42229,205.90512) scale(0.5,0.5)" font-size="40" xml:space="preserve" fill="#000000" fill-rule="nonzero" stroke="none" stroke-width="1" stroke-linecap="butt" stroke-linejoin="miter" stroke-miterlimit="10" stroke-dasharray="" stroke-dashoffset="0" font-family="&quot;Algerian&quot;, Sans Serif" font-weight="normal" text-anchor="start" style="mix-blend-mode: normal"><tspan x="0" dy="0">666</tspan></text><text transform="translate(59.08047,132.80454) scale(0.5,0.5)" font-size="40" xml:space="preserve" fill="#000000" fill-rule="nonzero" stroke="none" stroke-width="1" stroke-linecap="butt" stroke-linejoin="miter" stroke-miterlimit="10" stroke-dasharray="" stroke-dashoffset="0" font-family="&quot;Algerian&quot;, Sans Serif" font-weight="normal" text-anchor="start" style="mix-blend-mode: normal"><tspan x="0" dy="0">DEATH</tspan></text><text transform="translate(369.28935,214.3398) scale(0.5,0.5)" font-size="40" xml:space="preserve" fill="#000000" fill-rule="nonzero" stroke="none" stroke-width="1" stroke-linecap="butt" stroke-linejoin="miter" stroke-miterlimit="10" stroke-dasharray="" stroke-dashoffset="0" font-family="&quot;Algerian&quot;, Sans Serif" font-weight="normal" text-anchor="start" style="mix-blend-mode: normal"><tspan x="0" dy="0">666</tspan></text><text transform="translate(169.66853,143.11359) scale(0.5,0.5)" font-size="40" xml:space="preserve" fill="#000000" fill-rule="nonzero" stroke="none" stroke-width="1" stroke-linecap="butt" stroke-linejoin="miter" stroke-miterlimit="10" stroke-dasharray="" stroke-dashoffset="0" font-family="&quot;Algerian&quot;, Sans Serif" font-weight="normal" text-anchor="start" style="mix-blend-mode: normal"><tspan x="0" dy="0">DEATH</tspan></text><text transform="translate(275.57066,227.46042) scale(0.5,0.5)" font-size="40" xml:space="preserve" fill="#000000" fill-rule="nonzero" stroke="none" stroke-width="1" stroke-linecap="butt" stroke-linejoin="miter" stroke-miterlimit="10" stroke-dasharray="" stroke-dashoffset="0" font-family="&quot;Algerian&quot;, Sans Serif" font-weight="normal" text-anchor="start" style="mix-blend-mode: normal"><tspan x="0" dy="0">DEATH</tspan></text><text transform="translate(313.05814,114.99798) scale(0.5,0.5)" font-size="40" xml:space="preserve" fill="#000000" fill-rule="nonzero" stroke="none" stroke-width="1" stroke-linecap="butt" stroke-linejoin="miter" stroke-miterlimit="10" stroke-dasharray="" stroke-dashoffset="0" font-family="&quot;Algerian&quot;, Sans Serif" font-weight="normal" text-anchor="start" style="mix-blend-mode: normal"><tspan x="0" dy="0">DEATH</tspan></text><text transform="translate(327.11594,174.97795) scale(0.5,0.5)" font-size="40" xml:space="preserve" fill="#000000" fill-rule="nonzero" stroke="none" stroke-width="1" stroke-linecap="butt" stroke-linejoin="miter" stroke-miterlimit="10" stroke-dasharray="" stroke-dashoffset="0" font-family="&quot;Algerian&quot;, Sans Serif" font-weight="normal" text-anchor="start" style="mix-blend-mode: normal"><tspan x="0" dy="0">DEATH</tspan></text><text transform="translate(263.38723,172.16639) scale(0.00545,0.5)" font-size="40" xml:space="preserve" fill="#000000" fill-rule="nonzero" stroke="none" stroke-width="1" stroke-linecap="butt" stroke-linejoin="miter" stroke-miterlimit="10" stroke-dasharray="" stroke-dashoffset="0" font-family="&quot;Algerian&quot;, Sans Serif" font-weight="normal" text-anchor="start" style="mix-blend-mode: normal"><tspan x="0" dy="0">667</tspan></text><text transform="translate(283.06815,125.30704) scale(0.5,0.5)" font-size="40" xml:space="preserve" fill="#000000" fill-rule="nonzero" stroke="none" stroke-width="1" stroke-linecap="butt" stroke-linejoin="miter" stroke-miterlimit="10" stroke-dasharray="" stroke-dashoffset="0" font-family="&quot;Algerian&quot;, Sans Serif" font-weight="normal" text-anchor="start" style="mix-blend-mode: normal"><tspan x="0" dy="0">666</tspan></text><text transform="translate(262.45004,164.66889) scale(0.5,0.5)" font-size="40" xml:space="preserve" fill="#000000" fill-rule="nonzero" stroke="none" stroke-width="1" stroke-linecap="butt" stroke-linejoin="miter" stroke-miterlimit="10" stroke-dasharray="" stroke-dashoffset="0" font-family="&quot;Algerian&quot;, Sans Serif" font-weight="normal" text-anchor="start" style="mix-blend-mode: normal"><tspan x="0" dy="0">DEATH</tspan></text></g></g></svg>